<svg width="148" height="111" viewBox="0 0 148 111" fill="none" xmlns="http://www.w3.org/2000/svg">
<path d="M73.7833 110.745C105.354 110.745 130.947 109.251 130.947 107.407C130.947 105.564 105.354 104.07 73.7833 104.07C42.2126 104.07 16.6195 105.564 16.6195 107.407C16.6195 109.251 42.2126 110.745 73.7833 110.745Z" fill="#F5F5F5"/>
<path d="M103.045 32.8724L100.12 31.6931C100.12 31.6931 96.2609 38.7306 95.1553 39.0874C93.6517 39.5709 90.5383 40.9153 88.6927 41.1511C88.4421 41.446 88.0323 42.3629 88.0706 42.696C90.5501 43.5245 95.9985 42.4248 97.166 41.558C99.8224 39.5915 103.045 32.8724 103.045 32.8724Z" fill="#E58A7B"/>
<path d="M103.944 31.2714C104.489 33.2851 101.535 37.336 101.535 37.336L97.6641 35.1661C97.6641 35.1661 98.3893 33.5003 99.2738 31.805C100.692 29.0661 103.322 28.9747 103.944 31.2714Z" fill="#4CAF4F"/>
<path opacity="0.2" d="M103.944 31.2714C104.489 33.2851 101.535 37.336 101.535 37.336L97.6641 35.1661C97.6641 35.1661 98.3893 33.5003 99.2738 31.805C100.692 29.0661 103.322 28.9747 103.944 31.2714Z" fill="black"/>
<path opacity="0.2" d="M99.2002 36.0329L100.724 36.8879L100.993 32.209C100.105 32.89 99.4803 34.942 99.2002 36.0329Z" fill="black"/>
<path d="M101.397 29.7561C101.397 29.7561 98.3834 36.4604 100.141 48.9434H112.013C112.202 47.1214 111.577 38.2294 113.838 29.6441C112.536 29.3895 111.218 29.2211 109.893 29.1399C108.213 29.0426 106.529 29.0426 104.849 29.1399C103.684 29.2582 102.53 29.4642 101.397 29.7561Z" fill="#4CAF4F"/>
<path opacity="0.2" d="M101.397 29.7561C101.397 29.7561 98.3834 36.4604 100.141 48.9434H112.013C112.202 47.1214 111.577 38.2294 113.838 29.6441C112.536 29.3895 111.218 29.2211 109.893 29.1399C108.213 29.0426 106.529 29.0426 104.849 29.1399C103.684 29.2582 102.53 29.4642 101.397 29.7561Z" fill="black"/>
<g style="mix-blend-mode:multiply">
<path d="M98.6429 107.673C98.6252 107.991 103.127 108.248 108.696 108.248C114.266 108.248 118.8 107.991 118.818 107.673C118.836 107.354 114.336 107.101 108.764 107.101C103.192 107.101 98.6635 107.357 98.6429 107.673Z" fill="#E8ECF1"/>
</g>
<path d="M106.568 99.3064L104.462 100.122L106.276 104.807L108.382 103.992L106.568 99.3064Z" fill="#E58A7B"/>
<path d="M115.958 105.405H113.738L112.924 100.267H115.144L115.958 105.405Z" fill="#E58A7B"/>
<path d="M113.585 105.149H116.079C116.122 105.149 116.164 105.165 116.197 105.193C116.23 105.221 116.252 105.26 116.259 105.302L116.58 107.275C116.587 107.324 116.583 107.374 116.569 107.422C116.554 107.47 116.53 107.514 116.497 107.552C116.464 107.589 116.423 107.619 116.377 107.639C116.332 107.66 116.282 107.67 116.232 107.67C115.363 107.655 114.944 107.602 113.847 107.602C113.172 107.602 111.783 107.673 110.846 107.673C109.908 107.673 109.846 106.753 110.233 106.667C111.966 106.293 112.638 105.783 113.216 105.287C113.318 105.198 113.449 105.149 113.585 105.149Z" fill="#263238"/>
<path d="M106.214 104.388L108.573 103.699C108.615 103.687 108.66 103.69 108.7 103.707C108.74 103.724 108.773 103.754 108.794 103.793L109.678 105.562C109.699 105.607 109.709 105.656 109.709 105.705C109.709 105.754 109.698 105.803 109.677 105.848C109.656 105.892 109.625 105.932 109.587 105.963C109.549 105.995 109.505 106.018 109.457 106.031C108.599 106.267 108.024 106.411 106.951 106.724C106.211 106.939 105.456 107.29 104.725 107.522C104.218 107.685 103.027 107.691 102.411 107.691C101.5 107.691 101.296 106.729 101.689 106.685C102.676 106.576 102.809 106.626 103.354 106.352C104.247 105.962 105.056 105.403 105.737 104.707C105.865 104.561 106.03 104.451 106.214 104.388Z" fill="#263238"/>
<path d="M89.0642 41.1393L86.623 40.1162L85.6177 42.8227C86.6182 42.9751 87.6361 42.9751 88.6367 42.8227L89.0642 41.1393Z" fill="#E58A7B"/>
<path d="M84.8068 40.0454L84.7419 41.8439L85.6176 42.8168L86.6229 40.1103L84.8068 40.0454Z" fill="#E58A7B"/>
<path d="M106.857 99.7043L104.745 100.52L105.68 102.943L107.792 102.127L106.857 99.7043Z" fill="#CF6F64"/>
<path d="M115.144 100.267H112.924L113.346 102.917H115.566L115.144 100.267Z" fill="#CF6F64"/>
<path opacity="0.2" d="M99.7634 45.5676C99.8077 46.1012 99.8578 46.6467 99.9226 47.2068L108.75 44.3411C110.128 43.9326 111.326 43.0663 112.146 41.8852C112.182 41.098 112.226 40.2696 112.294 39.4057C112.323 38.9871 112.358 38.5566 112.397 38.1203C112.435 37.684 112.488 37.2004 112.544 36.7346L99.7634 45.5676Z" fill="black"/>
<path d="M102.647 35.8973L102.352 35.8619C102.526 34.3878 103.625 33.2262 104.784 33.2557V33.5505C103.77 33.5299 102.803 34.5765 102.647 35.8973Z" fill="white"/>
<path d="M104.218 38.6186H104.168V38.3238C105.182 38.3621 106.134 37.3037 106.291 35.9858L106.586 36.0212C106.429 37.4629 105.365 38.6186 104.218 38.6186Z" fill="white"/>
<path d="M109.728 23.4585C109.313 25.083 108.823 28.0578 109.894 29.1398C109.894 29.1398 109.145 30.7879 106.129 30.7879C103.372 30.7879 104.849 29.1398 104.849 29.1398C106.683 28.7094 106.715 27.3708 106.474 26.1031L109.728 23.4585Z" fill="#E58A7B"/>
<path d="M108.402 24.5376L106.477 26.1031C106.536 26.3944 106.571 26.6904 106.58 26.9876C107.143 27.5478 108.272 26.1297 108.387 25.4044C108.445 25.1188 108.45 24.825 108.402 24.5376Z" fill="#CF6F64"/>
<path d="M103.166 23.4379C103.299 23.6701 103.48 23.8722 103.695 24.0315C103.911 24.1907 104.157 24.3038 104.419 24.3637C105.126 24.5199 105.48 23.8684 105.285 23.2139C105.111 22.6242 104.531 21.8311 103.811 21.9667C103.657 21.9985 103.513 22.0667 103.391 22.1656C103.268 22.2646 103.171 22.3914 103.108 22.5355C103.045 22.6795 103.017 22.8367 103.027 22.9937C103.037 23.1507 103.085 23.303 103.166 23.4379Z" fill="#CF6F64"/>
<path d="M104.336 18.2402C103.233 18.7444 102.844 23.1255 104.23 23.7741C105.616 24.4228 106.424 17.2821 104.336 18.2402Z" fill="#263238"/>
<path d="M110.065 21.0145C109.799 23.2139 109.77 24.5082 108.59 25.6344C108.225 26.0082 107.763 26.2737 107.257 26.4016C106.75 26.5295 106.217 26.5148 105.718 26.3593C105.219 26.2037 104.773 25.9133 104.429 25.52C104.084 25.1268 103.855 24.646 103.767 24.1308C103.41 22.1555 103.903 18.8918 106.108 18.0161C106.571 17.8118 107.081 17.735 107.584 17.7939C108.087 17.8528 108.565 18.0451 108.969 18.351C109.372 18.6569 109.687 19.0652 109.879 19.5335C110.072 20.0018 110.136 20.5132 110.065 21.0145Z" fill="#E58A7B"/>
<path d="M106.441 19.3782C108.075 18.9625 109.274 18.6795 108.844 20.0387C108.275 21.8548 107.591 23.6119 108.508 23.6916C109.068 23.7417 111.545 22.6921 111.229 21.6278C110.955 20.702 112.114 20.4485 112.32 19.9797C113.084 18.2815 110.899 18.5056 111.288 17.4737C111.677 16.4418 109.519 14.779 108.34 15.6074C106.421 16.9459 103.127 16.9253 104.858 14.7229C106.099 13.1515 103.885 13.4729 103.885 13.4729C103.885 13.4729 105.224 14.266 102.971 15.4924C100.589 16.8015 102.774 20.3187 106.441 19.3782Z" fill="#263238"/>
<path d="M110.931 23.4379C110.609 23.9045 110.124 24.2345 109.572 24.3637C108.844 24.5199 108.564 23.8684 108.838 23.2139C109.083 22.6242 109.755 21.8311 110.451 21.9667C111.146 22.1024 111.306 22.8601 110.931 23.4379Z" fill="#E58A7B"/>
<path d="M100.141 48.9434C100.141 48.9434 98.1477 66.7803 97.9915 73.5495C97.8323 80.59 104.746 102.557 104.746 102.557L108.284 101.083C108.284 101.083 104.156 81.0116 104.746 74.0979C105.371 66.5592 107.954 48.9552 107.954 48.9552L100.141 48.9434Z" fill="#4CAF4F"/>
<path opacity="0.2" d="M105.094 53.8404C103.505 57.1366 104.575 63.6552 105.436 67.5174C105.763 64.7903 106.152 61.8302 106.521 59.0913C106.485 54.8812 106.158 51.6292 105.094 53.8404Z" fill="black"/>
<path d="M108.127 99.9158C108.145 99.9158 108.546 101.042 108.546 101.042L104.466 102.758L103.823 101.561L108.127 99.9158Z" fill="#4CAF4F"/>
<path d="M104.354 48.9434C104.354 48.9434 105.878 65.9077 106.886 72.2612C107.995 79.222 112.341 102.404 112.341 102.404H116.406C116.406 102.404 113.971 79.7851 113.511 72.8921C113.01 65.4153 112.013 48.9434 112.013 48.9434H104.354Z" fill="#4CAF4F"/>
<path d="M116.468 101.346C116.486 101.346 116.604 102.481 116.604 102.481H112.134L111.816 101.178L116.468 101.346Z" fill="#4CAF4F"/>
<path opacity="0.2" d="M114.912 100.001C114.902 100.002 114.893 99.9983 114.886 99.9923C114.879 99.9864 114.875 99.9781 114.873 99.969C114.85 99.7626 112.653 79.3311 112.24 73.1398C111.792 66.4237 110.89 51.5261 110.881 51.3757C110.881 51.3708 110.881 51.3659 110.883 51.3613C110.885 51.3566 110.887 51.3524 110.89 51.3488C110.894 51.3452 110.898 51.3423 110.902 51.3403C110.907 51.3384 110.912 51.3374 110.917 51.3374C110.926 51.3374 110.936 51.341 110.943 51.3476C110.95 51.3541 110.954 51.3631 110.955 51.3728C110.955 51.5231 111.866 66.4089 112.314 73.1368C112.727 79.3282 114.923 99.7449 114.944 99.966C114.945 99.9709 114.945 99.9759 114.943 99.9807C114.942 99.9855 114.94 99.99 114.937 99.9939C114.934 99.9977 114.93 100.001 114.926 100.003C114.921 100.006 114.916 100.007 114.912 100.007V100.001Z" fill="black"/>
<path d="M106.692 21.6278C106.692 21.8076 106.58 21.9521 106.462 21.9521C106.344 21.9521 106.258 21.8076 106.27 21.6278C106.282 21.4479 106.382 21.3035 106.5 21.3035C106.618 21.3035 106.704 21.4509 106.692 21.6278Z" fill="#263238"/>
<path d="M104.669 21.6278C104.669 21.8076 104.554 21.9521 104.439 21.9521C104.324 21.9521 104.236 21.8076 104.245 21.6278C104.254 21.4479 104.36 21.3035 104.478 21.3035C104.596 21.3035 104.681 21.4509 104.669 21.6278Z" fill="#263238"/>
<path d="M105.306 21.719C105.06 22.2682 104.743 22.7826 104.363 23.2491C104.657 23.544 105.209 23.4083 105.209 23.4083L105.306 21.719Z" fill="#DF5753"/>
<path d="M105.359 24.1603C105.352 24.1603 105.345 24.159 105.339 24.1562C105.333 24.1535 105.327 24.1496 105.323 24.1446C105.318 24.1396 105.314 24.1338 105.312 24.1273C105.31 24.1209 105.309 24.1141 105.309 24.1073C105.31 24.0929 105.316 24.0794 105.326 24.0695C105.337 24.0597 105.351 24.0542 105.365 24.0542C105.59 24.0557 105.813 24.0068 106.017 23.9109C106.222 23.8149 106.402 23.6745 106.544 23.4999C106.554 23.491 106.568 23.4861 106.581 23.4861C106.595 23.4861 106.608 23.491 106.618 23.4999C106.628 23.5098 106.633 23.523 106.633 23.5368C106.633 23.5505 106.628 23.5637 106.618 23.5736C106.465 23.7592 106.273 23.9082 106.055 24.0097C105.837 24.1113 105.599 24.1627 105.359 24.1603Z" fill="#263238"/>
<path d="M107.051 21.0853C107.037 21.0926 107.022 21.0964 107.006 21.0964C106.99 21.0964 106.974 21.0926 106.96 21.0853C106.85 21.014 106.724 20.9697 106.594 20.9559C106.463 20.942 106.331 20.9591 106.208 21.0057C106.196 21.0117 106.183 21.0153 106.17 21.0161C106.157 21.017 106.143 21.0152 106.13 21.0108C106.118 21.0064 106.106 20.9995 106.096 20.9905C106.086 20.9816 106.078 20.9707 106.073 20.9586C106.062 20.9323 106.061 20.9029 106.072 20.8764C106.082 20.85 106.103 20.8287 106.129 20.8171C106.283 20.7541 106.45 20.7293 106.616 20.7447C106.781 20.7601 106.941 20.8152 107.081 20.9055C107.092 20.9132 107.102 20.923 107.109 20.9345C107.117 20.9459 107.122 20.9587 107.124 20.9722C107.127 20.9856 107.127 20.9994 107.124 21.0128C107.121 21.0261 107.115 21.0388 107.107 21.05C107.093 21.0669 107.073 21.0791 107.051 21.0853Z" fill="#263238"/>
<path d="M103.888 20.4957C103.872 20.4919 103.858 20.4837 103.847 20.4721C103.837 20.4625 103.829 20.451 103.824 20.4384C103.818 20.4257 103.816 20.4121 103.816 20.3984C103.816 20.3847 103.818 20.3711 103.824 20.3584C103.829 20.3458 103.837 20.3343 103.847 20.3247C103.96 20.1979 104.1 20.099 104.258 20.0356C104.415 19.9722 104.585 19.946 104.755 19.9591C104.768 19.9612 104.781 19.966 104.793 19.9734C104.804 19.9807 104.814 19.9903 104.822 20.0016C104.83 20.013 104.835 20.0258 104.838 20.0392C104.84 20.0527 104.84 20.0666 104.837 20.08C104.831 20.1073 104.815 20.1313 104.792 20.1476C104.769 20.1639 104.741 20.1713 104.713 20.1684C104.579 20.16 104.445 20.1821 104.321 20.2332C104.197 20.2843 104.086 20.363 103.997 20.4632C103.984 20.4782 103.966 20.4891 103.947 20.4948C103.928 20.5005 103.907 20.5008 103.888 20.4957Z" fill="#263238"/>
<path d="M114.979 32.5452L111.913 31.7285C111.913 31.7285 108.906 39.1316 107.841 39.6122C106.397 40.2726 102.738 42.5604 101.181 43.6424C101.096 44.011 101.164 44.9868 101.358 45.2551C104.012 44.7716 109.092 42.8169 110.153 41.8234C112.573 39.5561 114.979 32.5452 114.979 32.5452Z" fill="#E58A7B"/>
<path d="M112.839 105.538C112.689 105.55 112.54 105.509 112.417 105.423C112.379 105.389 112.351 105.345 112.335 105.297C112.319 105.248 112.316 105.196 112.326 105.146C112.328 105.115 112.338 105.085 112.356 105.059C112.373 105.033 112.398 105.012 112.426 104.999C112.674 104.872 113.367 105.311 113.446 105.361C113.455 105.367 113.462 105.375 113.465 105.384C113.469 105.394 113.47 105.405 113.467 105.414C113.464 105.425 113.459 105.434 113.452 105.442C113.445 105.45 113.436 105.455 113.426 105.459C113.233 105.506 113.037 105.533 112.839 105.538ZM112.544 105.078C112.522 105.073 112.499 105.073 112.476 105.078C112.465 105.084 112.456 105.093 112.449 105.104C112.443 105.115 112.44 105.128 112.441 105.14C112.433 105.175 112.434 105.21 112.445 105.244C112.455 105.278 112.474 105.308 112.5 105.332C112.615 105.435 112.904 105.447 113.284 105.373C113.058 105.224 112.803 105.124 112.535 105.078H112.544Z" fill="#4CAF4F"/>
<path d="M113.411 105.459C113.403 105.461 113.395 105.461 113.387 105.459C113.166 105.335 112.75 104.848 112.812 104.601C112.822 104.561 112.844 104.526 112.875 104.501C112.907 104.476 112.946 104.462 112.986 104.462C113.026 104.457 113.066 104.46 113.104 104.472C113.142 104.484 113.178 104.503 113.207 104.53C113.452 104.739 113.467 105.382 113.467 105.414C113.468 105.424 113.466 105.434 113.462 105.443C113.457 105.451 113.449 105.458 113.44 105.462C113.43 105.464 113.42 105.463 113.411 105.459ZM113.016 104.559H112.995C112.927 104.559 112.919 104.598 112.916 104.613C112.88 104.757 113.143 105.126 113.361 105.299C113.36 105.05 113.283 104.808 113.14 104.604C113.105 104.574 113.061 104.558 113.016 104.559Z" fill="#4CAF4F"/>
<path d="M105.011 105.17C104.831 105.233 104.634 105.233 104.454 105.17C104.413 105.148 104.378 105.115 104.353 105.076C104.328 105.037 104.313 104.992 104.31 104.946C104.306 104.917 104.31 104.887 104.32 104.86C104.331 104.832 104.349 104.808 104.371 104.789C104.607 104.577 105.571 104.789 105.68 104.831C105.691 104.833 105.7 104.839 105.706 104.848C105.713 104.857 105.716 104.867 105.716 104.878C105.716 104.889 105.713 104.9 105.708 104.909C105.702 104.919 105.693 104.926 105.683 104.931C105.466 105.029 105.241 105.109 105.011 105.17ZM104.531 104.819C104.497 104.826 104.465 104.841 104.439 104.863C104.43 104.87 104.423 104.88 104.418 104.891C104.414 104.902 104.413 104.914 104.416 104.925C104.418 104.956 104.427 104.986 104.444 105.012C104.46 105.038 104.483 105.06 104.51 105.075C104.666 105.158 105.029 105.093 105.498 104.896C105.182 104.816 104.855 104.79 104.531 104.819Z" fill="#4CAF4F"/>
<path d="M105.675 104.931H105.651C105.356 104.878 104.766 104.539 104.749 104.285C104.749 104.226 104.775 104.144 104.917 104.097C104.965 104.08 105.015 104.072 105.066 104.075C105.117 104.078 105.166 104.092 105.212 104.114C105.53 104.271 105.698 104.837 105.707 104.863C105.709 104.872 105.709 104.881 105.706 104.89C105.704 104.899 105.699 104.907 105.692 104.913C105.688 104.92 105.682 104.927 105.675 104.931ZM104.976 104.185H104.946C104.855 104.217 104.855 104.256 104.855 104.268C104.855 104.421 105.282 104.701 105.58 104.795C105.512 104.559 105.366 104.351 105.167 104.206C105.108 104.176 105.04 104.168 104.976 104.185Z" fill="#4CAF4F"/>
<path d="M101.432 43.4685L98.357 44.8837L98.0002 45.7682L99.1353 46.5317C99.1353 46.5317 101.258 46.3018 101.862 44.9367L101.432 43.4685Z" fill="#E58A7B"/>
<path d="M101.562 45.3053C101.493 44.7145 101.298 44.1453 100.99 43.6366L101.476 43.271C101.842 43.8572 102.076 44.5163 102.16 45.2021L101.562 45.3053Z" fill="#263238"/>
<path d="M102.087 43.8871C102.152 43.9893 102.183 44.1091 102.178 44.2302C102.172 44.3512 102.13 44.4676 102.056 44.5636C101.982 44.6595 101.88 44.7303 101.764 44.7664C101.649 44.8025 101.525 44.802 101.409 44.7651C101.294 44.7282 101.193 44.6567 101.119 44.5602C101.046 44.4637 101.004 44.347 101 44.2259C100.995 44.1049 101.028 43.9853 101.094 43.8835C101.159 43.7817 101.255 43.7027 101.367 43.6571C101.493 43.5929 101.639 43.581 101.774 43.6241C101.909 43.6672 102.021 43.7617 102.087 43.8871Z" fill="#263238"/>
<path d="M96.2786 46.0275L96.6884 46.4402L99.4479 45.2609L98.3571 44.8835L96.2786 46.0275Z" fill="#E58A7B"/>
<path opacity="0.2" d="M108.127 99.9158C108.145 99.9158 108.546 101.042 108.546 101.042L104.466 102.758L103.823 101.561L108.127 99.9158Z" fill="black"/>
<path opacity="0.2" d="M116.468 101.346C116.486 101.346 116.604 102.481 116.604 102.481H112.134L111.816 101.178L116.468 101.346Z" fill="black"/>
<path d="M115.778 31.696C116.589 34.3111 113.42 37.8874 113.42 37.8874L109.042 36.1007C109.56 34.5892 110.159 33.1061 110.834 31.6577C112.178 28.7596 114.959 29.0573 115.778 31.696Z" fill="#4CAF4F"/>
<path opacity="0.2" d="M115.778 31.696C116.589 34.3111 113.42 37.8874 113.42 37.8874L109.042 36.1007C109.56 34.5892 110.159 33.1061 110.834 31.6577C112.178 28.7596 114.959 29.0573 115.778 31.696Z" fill="black"/>
<path d="M72.2738 5.49487H70.3899V5.79854H72.2738V5.49487Z" fill="#4CAF4F"/>
<path d="M96.6614 17.5138L96.4333 22.5737L96.7367 22.5874L96.9647 17.5274L96.6614 17.5138Z" fill="#4CAF4F"/>
<path d="M96.0752 6.85693H61.2858L58.0486 79.3016H92.8381L96.0752 6.85693Z" fill="#4CAF4F"/>
<path opacity="0.56" d="M95.0374 7.85352H60.2479L57.0107 80.2982H91.8002L95.0374 7.85352Z" fill="#FAFAFA"/>
<path opacity="0.07" d="M93.9996 8.84692H59.2101L55.97 81.2916H90.7594L93.9996 8.84692Z" fill="#4CAF4F"/>
<path d="M90.0402 40.4436H60.3453L60.0977 45.9863H89.7925L90.0402 40.4436Z" fill="white"/>
<path d="M76.6757 36.3984H60.5251L60.416 38.8779H76.5666L76.6757 36.3984Z" fill="#4CAF4F"/>
<path d="M89.3708 55.4031H59.6759L59.4282 60.9458H89.1231L89.3708 55.4031Z" fill="white"/>
<path opacity="0.47" d="M83.9253 68.4314H63.9567L63.6589 75.0738H83.6275L83.9253 68.4314Z" fill="#4CAF4F"/>
<path d="M82.5898 76.1058H62.6213C62.6126 76.108 62.6034 76.108 62.5947 76.1058C62.5918 76.0972 62.5918 76.0879 62.5947 76.0793L62.8895 69.4339C62.8895 69.4294 62.8905 69.4249 62.8923 69.4207C62.8941 69.4166 62.8967 69.4129 62.9001 69.4098C62.9034 69.4068 62.9073 69.4045 62.9116 69.403C62.9159 69.4016 62.9204 69.401 62.9249 69.4014H82.8935C82.8972 69.3996 82.9012 69.3987 82.9053 69.3987C82.9094 69.3987 82.9134 69.3996 82.9171 69.4014C82.9192 69.405 82.9202 69.4091 82.9202 69.4132C82.9202 69.4174 82.9192 69.4214 82.9171 69.425L82.6282 76.0852C82.6246 76.0921 82.619 76.0978 82.6122 76.1014C82.6054 76.1051 82.5976 76.1066 82.5898 76.1058ZM62.6566 76.035H82.5544L82.8493 69.4604H62.9515L62.6566 76.035Z" fill="white"/>
<path d="M73.1879 51.3579H59.8559L59.7468 53.8403H73.0759L73.1879 51.3579Z" fill="#4CAF4F"/>
<path d="M83.545 22.5386C83.4688 24.1517 82.8952 25.7017 81.9029 26.9757C81.1683 27.9381 80.223 28.7194 79.1395 29.2596C78.056 29.7998 76.8632 30.0846 75.6525 30.0921C74.6742 30.0995 73.7047 29.9066 72.8038 29.5252C71.9028 29.1438 71.0895 28.582 70.4139 27.8743C69.7383 27.1667 69.2147 26.3282 68.8754 25.4106C68.5362 24.4929 68.3883 23.5156 68.4411 22.5386C68.5448 20.5114 69.419 18.6004 70.885 17.1963C72.3509 15.7923 74.2979 15.0013 76.3277 14.9852C77.3068 14.976 78.2773 15.1678 79.1793 15.5485C80.0814 15.9293 80.8958 16.491 81.5722 17.1989C82.2486 17.9068 82.7726 18.7459 83.112 19.6643C83.4513 20.5827 83.5987 21.561 83.545 22.5386Z" fill="white"/>
<path d="M84.2557 16.5654C84.2364 16.9944 84.0839 17.4066 83.8193 17.7447C83.6236 18.0004 83.372 18.2079 83.0838 18.3514C82.7956 18.495 82.4785 18.5709 82.1565 18.5732C81.8446 18.5751 81.5369 18.5006 81.2604 18.3562C80.984 18.2118 80.747 18.0018 80.5704 17.7447C80.3364 17.3973 80.2206 16.9838 80.2402 16.5654C80.2687 16.0272 80.5014 15.5201 80.8909 15.1476C81.2804 14.7751 81.7974 14.5651 82.3364 14.5606C82.5964 14.5583 82.8541 14.6091 83.0937 14.7102C83.3333 14.8112 83.5497 14.9602 83.7295 15.148C83.9093 15.3359 84.0488 15.5585 84.1393 15.8023C84.2298 16.0461 84.2694 16.3058 84.2557 16.5654Z" fill="#4CAF4F"/>
<path d="M63.5441 43.2148C63.5299 43.4524 63.4262 43.6758 63.2539 43.8399C63.0816 44.0041 62.8534 44.0967 62.6154 44.0993C62.5005 44.1007 62.3865 44.0785 62.2805 44.034C62.1746 43.9896 62.0788 43.9239 61.9992 43.841C61.9197 43.7581 61.8579 43.6598 61.8179 43.5521C61.7778 43.4444 61.7602 43.3296 61.7663 43.2148C61.7791 42.9768 61.8824 42.7526 62.055 42.5882C62.2276 42.4237 62.4566 42.3315 62.695 42.3304C62.8098 42.3294 62.9236 42.3519 63.0293 42.3965C63.1351 42.4411 63.2307 42.5068 63.3102 42.5896C63.3897 42.6724 63.4514 42.7706 63.4917 42.8781C63.5319 42.9856 63.5497 43.1002 63.5441 43.2148Z" fill="#263238"/>
<path d="M67.5185 43.2149C67.505 43.4527 67.4015 43.6765 67.229 43.8407C67.0565 44.005 66.8279 44.0975 66.5898 44.0993C66.4751 44.1003 66.3614 44.0778 66.2558 44.0332C66.1502 43.9886 66.0548 43.9228 65.9755 43.84C65.8963 43.7571 65.8348 43.6589 65.7949 43.5514C65.755 43.4439 65.7376 43.3294 65.7436 43.2149C65.7563 42.9773 65.8592 42.7535 66.0312 42.5892C66.2032 42.4249 66.4315 42.3323 66.6694 42.3304C66.7843 42.329 66.8982 42.3512 67.0042 42.3957C67.1102 42.4401 67.2059 42.5058 67.2855 42.5887C67.3651 42.6716 67.4268 42.7699 67.4669 42.8776C67.507 42.9853 67.5245 43.1001 67.5185 43.2149Z" fill="#263238"/>
<path d="M71.4956 43.2149C71.4821 43.4527 71.3786 43.6765 71.2061 43.8407C71.0337 44.005 70.8051 44.0975 70.5669 44.0993C70.4521 44.1003 70.3383 44.0778 70.2326 44.0332C70.1268 43.9886 70.0312 43.9229 69.9517 43.8401C69.8722 43.7573 69.8105 43.6591 69.7703 43.5516C69.73 43.4441 69.7122 43.3295 69.7178 43.2149C69.7313 42.977 69.8348 42.7533 70.0073 42.589C70.1798 42.4247 70.4083 42.3322 70.6465 42.3304C70.7614 42.329 70.8754 42.3512 70.9814 42.3957C71.0873 42.4401 71.1831 42.5058 71.2627 42.5887C71.3423 42.6716 71.404 42.7699 71.4441 42.8776C71.4841 42.9853 71.5017 43.1001 71.4956 43.2149Z" fill="#263238"/>
<path d="M62.8748 58.1743C62.8606 58.4119 62.7569 58.6352 62.5846 58.7994C62.4122 58.9635 62.184 59.0562 61.9461 59.0588C61.8313 59.0597 61.7175 59.0372 61.6117 58.9926C61.5059 58.9481 61.4104 58.8824 61.3309 58.7996C61.2514 58.7167 61.1896 58.6186 61.1494 58.5111C61.1092 58.4035 61.0913 58.289 61.097 58.1743C61.1104 57.9365 61.2139 57.7127 61.3864 57.5484C61.5589 57.3841 61.7875 57.2917 62.0257 57.2898C62.1404 57.2889 62.2542 57.3114 62.36 57.356C62.4658 57.4005 62.5614 57.4662 62.6408 57.5491C62.7203 57.6319 62.7821 57.73 62.8223 57.8375C62.8625 57.9451 62.8804 58.0596 62.8748 58.1743Z" fill="#263238"/>
<path d="M66.849 58.1743C66.8356 58.4116 66.7325 58.635 66.5606 58.7992C66.3888 58.9634 66.1609 59.0562 65.9233 59.0588C65.8084 59.0602 65.6944 59.0379 65.5884 58.9935C65.4824 58.9491 65.3867 58.8834 65.3071 58.8005C65.2275 58.7176 65.1658 58.6192 65.1257 58.5115C65.0857 58.4038 65.0681 58.2891 65.0742 58.1743C65.0876 57.9365 65.1911 57.7127 65.3636 57.5484C65.5361 57.3841 65.7647 57.2917 66.0029 57.2898C66.1175 57.2889 66.2312 57.3114 66.3368 57.356C66.4424 57.4006 66.5378 57.4663 66.6171 57.5492C66.6964 57.6321 66.7578 57.7303 66.7977 57.8378C66.8376 57.9453 66.8551 58.0598 66.849 58.1743Z" fill="#263238"/>
<path d="M70.8351 58.1743C70.8216 58.4122 70.7181 58.6359 70.5456 58.8002C70.3731 58.9645 70.1446 59.0569 69.9064 59.0588C69.7917 59.0593 69.6781 59.0365 69.5725 58.9918C69.4669 58.9471 69.3716 58.8814 69.2921 58.7987C69.2127 58.7159 69.151 58.6179 69.1106 58.5106C69.0702 58.4033 69.0521 58.2889 69.0573 58.1743C69.0714 57.9368 69.1751 57.7134 69.3475 57.5492C69.5198 57.3851 69.748 57.2924 69.986 57.2899C70.1009 57.2885 70.2148 57.3107 70.3208 57.3551C70.4268 57.3996 70.5225 57.4652 70.6021 57.5481C70.6817 57.631 70.7434 57.7294 70.7835 57.8371C70.8236 57.9448 70.8411 58.0596 70.8351 58.1743Z" fill="#263238"/>
<path d="M74.8036 58.1743C74.7894 58.4119 74.6857 58.6352 74.5134 58.7994C74.341 58.9635 74.1129 59.0562 73.8749 59.0588C73.7602 59.0593 73.6466 59.0365 73.541 58.9918C73.4355 58.9471 73.3401 58.8813 73.2607 58.7986C73.1812 58.7159 73.1195 58.6179 73.0791 58.5106C73.0387 58.4033 73.0206 58.2889 73.0258 58.1743C73.0399 57.9367 73.1436 57.7134 73.316 57.5492C73.4883 57.3851 73.7165 57.2924 73.9545 57.2898C74.0693 57.2889 74.183 57.3114 74.2888 57.356C74.3946 57.4005 74.4902 57.4662 74.5697 57.5491C74.6492 57.6319 74.7109 57.73 74.7511 57.8375C74.7914 57.9451 74.8092 58.0596 74.8036 58.1743Z" fill="#263238"/>
<path d="M78.7953 58.1743C78.7812 58.4119 78.6775 58.6352 78.5051 58.7994C78.3328 58.9635 78.1046 59.0562 77.8666 59.0588C77.7517 59.0601 77.6378 59.0379 77.5318 58.9935C77.4258 58.9491 77.33 58.8834 77.2505 58.8005C77.1709 58.7176 77.1091 58.6192 77.0691 58.5115C77.029 58.4038 77.0115 58.2891 77.0175 58.1743C77.031 57.9365 77.1345 57.7127 77.307 57.5484C77.4795 57.3841 77.708 57.2917 77.9462 57.2898C78.061 57.2889 78.1748 57.3114 78.2806 57.356C78.3864 57.4005 78.4819 57.4662 78.5614 57.5491C78.6409 57.6319 78.7027 57.73 78.7429 57.8375C78.7831 57.9451 78.8009 58.0596 78.7953 58.1743Z" fill="#263238"/>
<path d="M78.1921 22.1454C79.4261 20.9387 79.4916 19.0044 78.3383 17.8251C77.1851 16.6458 75.2499 16.6681 74.0159 17.8748C72.7819 19.0816 72.7164 21.0158 73.8696 22.1951C75.0228 23.3744 76.9581 23.3521 78.1921 22.1454Z" fill="#4CAF4F"/>
<path d="M81.9029 26.9758C81.1683 27.9382 80.223 28.7194 79.1395 29.2596C78.0561 29.7998 76.8632 30.0846 75.6526 30.0921C74.4786 30.1021 73.3202 29.823 72.2796 29.2795C71.2389 28.7361 70.348 27.9449 69.6853 26.9758C71.1182 25.5488 73.3854 24.6172 75.8973 24.6172C78.4092 24.6172 80.5968 25.5488 81.9029 26.9758Z" fill="#4CAF4F"/>
<path opacity="0.1" d="M78.1921 22.1454C79.4261 20.9387 79.4916 19.0044 78.3383 17.8251C77.1851 16.6458 75.2499 16.6681 74.0159 17.8748C72.7819 19.0816 72.7164 21.0158 73.8696 22.1951C75.0228 23.3744 76.9581 23.3521 78.1921 22.1454Z" fill="white"/>
<path opacity="0.1" d="M81.9029 26.9758C81.1683 27.9382 80.223 28.7194 79.1395 29.2596C78.0561 29.7998 76.8632 30.0846 75.6526 30.0921C74.4786 30.1021 73.3202 29.823 72.2796 29.2795C71.2389 28.7361 70.348 27.9449 69.6853 26.9758C71.1182 25.5488 73.3854 24.6172 75.8973 24.6172C78.4092 24.6172 80.5968 25.5488 81.9029 26.9758Z" fill="white"/>
<path d="M38.5251 47.3219C38.245 47.9351 37.9502 48.6102 37.6937 49.2648C37.4372 49.9193 37.1748 50.5944 36.9478 51.2666C36.4843 52.5914 36.1312 53.9522 35.8923 55.3352L35.8275 55.7686C35.8213 55.843 35.8283 55.9178 35.8481 55.9897C35.9177 56.2341 36.0273 56.4652 36.1724 56.6737C36.551 57.2135 36.9902 57.7081 37.4814 58.1479C37.9993 58.6296 38.5426 59.0833 39.1089 59.507C39.6749 59.9434 40.2705 60.3679 40.8572 60.7689L40.3059 61.8037C38.9049 61.1933 37.5752 60.431 36.3405 59.5306C35.6817 59.0502 35.0872 58.4874 34.5715 57.856C34.2658 57.4801 34.0274 57.0542 33.8669 56.5971C33.7735 56.3115 33.7258 56.013 33.7253 55.7126C33.7253 55.6418 33.7253 55.5387 33.7253 55.4885V55.3441L33.7548 55.0492C33.9238 53.5132 34.2468 51.998 34.7189 50.5266C34.9489 49.8013 35.1936 49.079 35.4737 48.3744C35.7537 47.6697 36.0427 46.9799 36.3994 46.2634L38.5251 47.3219Z" fill="#E58A7B"/>
<path d="M40.4414 60.586L42.5259 59.5305L41.9863 61.8184C41.9863 61.8184 40.5564 62.2193 39.8931 61.5235L40.4414 60.586Z" fill="#E58A7B"/>
<path d="M44.4334 59.9049L43.8791 61.7977L41.9863 61.8184L42.5259 59.5305L44.4334 59.9049Z" fill="#E58A7B"/>
<path d="M47.3758 36.2834C47.4873 36.692 47.6424 37.0874 47.8386 37.4628C47.7813 37.5278 47.7075 37.576 47.625 37.6025C47.5425 37.629 47.4543 37.6326 47.3699 37.6131L47.3758 36.2834Z" fill="#DF5753"/>
<path d="M47.3139 36.3011C47.436 36.3011 47.535 36.1494 47.535 35.9621C47.535 35.7748 47.436 35.623 47.3139 35.623C47.1918 35.623 47.0928 35.7748 47.0928 35.9621C47.0928 36.1494 47.1918 36.3011 47.3139 36.3011Z" fill="#263238"/>
<path d="M47.249 35.6348L47.6972 35.5081C47.6972 35.5081 47.479 35.856 47.249 35.6348Z" fill="#263238"/>
<path d="M41.6178 38.4475C41.8861 39.8185 42.1544 42.3333 41.1932 43.2502C41.1932 43.2502 41.5706 44.6418 44.1209 44.6418C46.9247 44.6418 45.4594 43.2502 45.4594 43.2502C43.9292 42.8846 43.9675 41.7496 44.2358 40.6823L41.6178 38.4475Z" fill="#E58A7B"/>
<path d="M40.8719 35.3223C41.0134 37.6131 41.0252 38.586 42.1809 39.7624C43.9234 41.5313 46.7065 40.8591 47.252 38.5831C47.7443 36.5193 47.4318 33.1229 45.1882 32.2119C44.6957 32.009 44.1596 31.9351 43.6306 31.9972C43.1016 32.0593 42.5971 32.2553 42.165 32.5667C41.7329 32.8781 41.3873 33.2946 41.1611 33.7768C40.9348 34.259 40.8353 34.7909 40.8719 35.3223Z" fill="#E58A7B"/>
<path d="M41.0989 32.7457C39.9491 33.1643 38.416 32.8518 39.0174 36.3986C39.6542 40.1547 38.6754 41.39 38.6754 41.39C38.6754 41.39 43.0359 42.3187 47.4878 41.334C47.4878 41.334 46.1286 38.9577 46.5089 37.2064C46.9954 34.9952 46.6121 34.1786 46.6121 34.1786C46.6121 34.1786 42.7145 32.156 41.0989 32.7457Z" fill="#263238"/>
<path d="M45.9636 36.5165C45.9648 36.9521 46.0895 37.3784 46.3233 37.7459C46.6358 38.2236 47.0044 38.0408 47.0958 37.5337C47.1783 37.0885 47.1164 36.3013 46.7184 35.9947C46.3204 35.688 45.9695 35.9888 45.9636 36.5165Z" fill="#E58A7B"/>
<path d="M40.0994 33.1319C39.7692 32.2031 41.3436 30.7732 44.6751 31.3629C48.0067 31.9525 48.1511 34.7269 48.1511 34.7269L47.4789 33.9249L47.5084 34.7681L44.0855 35.4256L40.0994 33.1319Z" fill="#263238"/>
<path d="M40.3824 43.4065C40.3628 43.2718 40.3965 43.1349 40.4763 43.0247C40.5562 42.9146 40.6759 42.84 40.8099 42.8168C41.8477 42.6458 44.2063 42.2979 45.3915 42.463C46.276 42.5868 46.506 43.0998 46.5443 43.5214C46.5503 43.5953 46.5404 43.6695 46.5153 43.7392C46.4903 43.8089 46.4506 43.8724 46.3989 43.9255C46.3472 43.9785 46.2848 44.0199 46.2158 44.0469C46.1468 44.0738 46.0728 44.0856 45.9989 44.0816L40.8748 43.8516C40.754 43.8455 40.639 43.7979 40.5493 43.7168C40.4596 43.6357 40.4006 43.526 40.3824 43.4065Z" fill="#4CAF4F"/>
<path opacity="0.6" d="M40.3824 43.4065C40.3628 43.2718 40.3965 43.1349 40.4763 43.0247C40.5562 42.9146 40.6759 42.84 40.8099 42.8168C41.8477 42.6458 44.2063 42.2979 45.3915 42.463C46.276 42.5868 46.506 43.0998 46.5443 43.5214C46.5503 43.5953 46.5404 43.6695 46.5153 43.7392C46.4903 43.8089 46.4506 43.8724 46.3989 43.9255C46.3472 43.9785 46.2848 44.0199 46.2158 44.0469C46.1468 44.0738 46.0728 44.0856 45.9989 44.0816L40.8748 43.8516C40.754 43.8455 40.639 43.7979 40.5493 43.7168C40.4596 43.6357 40.4006 43.526 40.3824 43.4065Z" fill="black"/>
<path d="M43.3455 94.9127L45.2471 96.2335L48.4283 91.9202L46.5266 90.6023L43.3455 94.9127Z" fill="#E58A7B"/>
<path d="M38.9113 94.8271L40.919 95.971L43.7346 91.41L41.7268 90.2661L38.9113 94.8271Z" fill="#E58A7B"/>
<path d="M48.4254 91.9202L46.7861 94.1432L44.8845 92.8253L46.5238 90.6023L48.4254 91.9202Z" fill="#CF6F64"/>
<path d="M41.724 90.2661L43.7347 91.413L42.2842 93.7627L40.2734 92.6159L41.724 90.2661Z" fill="#CF6F64"/>
<path d="M44.9493 57.8059C44.9493 57.8059 52.373 67.1607 50.9785 76.1087C49.8552 83.3349 43.3395 93.1202 43.3395 93.1202L40.2763 91.5989C42.4354 87.2724 44.278 82.795 45.7895 78.202C46.2556 76.776 46.3917 75.2628 46.1874 73.7765C45.9831 72.2903 45.4438 70.8699 44.6102 69.6225C40.8482 64.1299 34.822 67.3996 38.8759 57.8059H44.9493Z" fill="#4CAF4F"/>
<path opacity="0.6" d="M44.9493 57.8059C44.9493 57.8059 52.373 67.1607 50.9785 76.1087C49.8552 83.3349 43.3395 93.1202 43.3395 93.1202L40.2763 91.5989C42.4354 87.2724 44.278 82.795 45.7895 78.202C46.2556 76.776 46.3917 75.2628 46.1874 73.7765C45.9831 72.2903 45.4438 70.8699 44.6102 69.6225C40.8482 64.1299 34.822 67.3996 38.8759 57.8059H44.9493Z" fill="black"/>
<path opacity="0.4" d="M48.5905 63.8144L47.5115 62.7412C47.5115 62.8267 49.6018 75.7313 50.1885 79.3576C50.5347 78.2983 50.7998 77.2141 50.9816 76.1145C51.6715 71.7246 50.2298 67.2403 48.5905 63.8144Z" fill="black"/>
<path d="M48.2632 57.8059C48.2632 57.8059 57.2023 69.5636 57.4559 76.6129C57.6652 82.5094 47.7266 93.9339 47.7266 93.9339L44.8373 92.0647C44.8373 92.0647 50.6542 83.9511 52.1195 77.3234C51.5534 70.7547 39.5835 57.8059 39.5835 57.8059H48.2632Z" fill="#4CAF4F"/>
<path opacity="0.6" d="M48.2632 57.8059C48.2632 57.8059 57.2023 69.5636 57.4559 76.6129C57.6652 82.5094 47.7266 93.9339 47.7266 93.9339L44.8373 92.0647C44.8373 92.0647 50.6542 83.9511 52.1195 77.3234C51.5534 70.7547 39.5835 57.8059 39.5835 57.8059H48.2632Z" fill="black"/>
<path d="M37.2043 43.7749C36.2491 44.002 35.3322 47.475 35.3322 47.475L39.0676 49.9692C39.0676 49.9692 40.3118 47.2215 39.8754 46.0186C39.4243 44.7656 38.4042 43.489 37.2043 43.7749Z" fill="#4CAF4F"/>
<path opacity="0.2" d="M37.9355 46.0127L37.676 49.0406L39.0647 49.9722C39.4481 49.109 39.732 48.2049 39.9108 47.2775L37.9355 46.0127Z" fill="black"/>
<path d="M49.3687 43.8428C49.3687 43.8428 50.4714 44.229 48.2632 57.8028H38.87C39.0292 53.9701 39.0321 51.6115 37.2042 43.775C38.5195 43.5039 39.8526 43.3286 41.1932 43.2502C42.6134 43.1484 44.0391 43.1484 45.4594 43.2502C47.2932 43.4183 49.3687 43.8428 49.3687 43.8428Z" fill="#4CAF4F"/>
<path d="M50.3239 46.0128C50.5362 46.6025 50.7602 47.2364 50.9961 47.8467C51.232 48.4569 51.456 49.0849 51.6948 49.7041L52.4172 51.5556L52.5999 52.0184L52.6943 52.2484L52.7385 52.3634C52.7385 52.384 52.7385 52.384 52.7385 52.3811C52.6846 52.3051 52.614 52.2426 52.5321 52.1983C52.4155 52.1297 52.284 52.0902 52.1489 52.0833C52.0366 52.0798 51.9249 52.1009 51.8216 52.1452C51.686 52.2071 51.686 52.2337 51.6889 52.2307C51.7134 52.2111 51.7353 52.1883 51.7538 52.1629C51.917 51.9486 52.0582 51.7185 52.1754 51.476C52.314 51.2047 52.4466 50.9158 52.5793 50.6239C52.8388 50.0343 53.0776 49.424 53.3164 48.8078C53.5552 48.1916 53.7822 47.5695 54.0033 46.9415L54.6755 45.0605L55.8106 45.3554C55.5865 46.6998 55.2976 48.0088 54.9497 49.3414C54.7817 50.0048 54.5841 50.6622 54.3601 51.3256C54.248 51.6588 54.1242 51.989 53.9827 52.328C53.8352 52.696 53.6536 53.0494 53.4402 53.3835C53.3618 53.4959 53.2751 53.6024 53.1808 53.7019C53.0302 53.8645 52.8475 53.994 52.6442 54.0822C52.4638 54.1597 52.2684 54.1959 52.0722 54.1884C51.8525 54.1802 51.6384 54.1163 51.4501 54.0026C51.228 53.864 51.0437 53.6726 50.9135 53.4454C50.8693 53.3687 50.831 53.2921 50.8045 53.2361L50.7484 53.124L50.6364 52.8941L50.4123 52.4371C50.1175 51.8239 49.8227 51.2047 49.5662 50.5826C49.3097 49.9606 49.0385 49.3296 48.7849 48.6958C48.5314 48.0619 48.3043 47.428 48.0891 46.744L50.3239 46.0128Z" fill="#E58A7B"/>
<path d="M49.3688 43.8427C50.498 44.111 51.7687 47.4485 51.7687 47.4485L48.4106 50.3053C48.4106 50.3053 46.2378 46.6672 46.6771 45.4672C47.134 44.2172 47.8947 43.4919 49.3688 43.8427Z" fill="#4CAF4F"/>
<path d="M55.2092 44.005L56.3885 43.0203L57.2081 44.2969L56.6037 45.3612C56.6037 45.3612 55.6426 46.2457 54.7935 45.7946C54.6587 45.4917 54.6264 45.1531 54.7014 44.8301C54.7764 44.5072 54.9547 44.2175 55.2092 44.005Z" fill="#E58A7B"/>
<path d="M58.5171 43.0232L58.4287 43.3446L56.5624 43.6571L56.3796 43.0203L58.5171 43.0232Z" fill="#E58A7B"/>
<path d="M47.9565 94.084L44.5896 91.9082L45.194 90.8586L48.9766 93.1848L47.9565 94.084Z" fill="#4CAF4F"/>
<path d="M42.2369 95.8178C41.9415 95.7817 41.6577 95.681 41.4055 95.5229C41.3951 95.5193 41.3861 95.5125 41.3797 95.5036C41.3733 95.4946 41.3699 95.4838 41.3699 95.4728C41.3699 95.4618 41.3733 95.451 41.3797 95.4421C41.3861 95.4331 41.3951 95.4263 41.4055 95.4227C41.4969 95.3932 42.29 95.1485 42.5199 95.3372C42.5458 95.3587 42.5654 95.3867 42.5768 95.4183C42.5882 95.4499 42.591 95.484 42.5848 95.517C42.5807 95.5701 42.5631 95.6213 42.5337 95.6656C42.5043 95.71 42.464 95.7461 42.4168 95.7706C42.3615 95.8007 42.2998 95.8169 42.2369 95.8178ZM41.5736 95.4934C41.9421 95.6821 42.2369 95.7499 42.3784 95.6792C42.4092 95.6621 42.4352 95.6374 42.4538 95.6075C42.4723 95.5776 42.4829 95.5434 42.4846 95.5082C42.4846 95.461 42.4846 95.4404 42.458 95.4286C42.3342 95.3283 41.892 95.405 41.5677 95.4934H41.5736Z" fill="#263238"/>
<path d="M41.4261 95.5436C41.4106 95.5434 41.3957 95.537 41.3849 95.5259C41.3805 95.5178 41.3782 95.5087 41.3782 95.4994C41.3782 95.4901 41.3805 95.481 41.3849 95.4729C41.3849 95.4463 41.5765 94.8066 41.8772 94.6621C41.9156 94.6446 41.9574 94.6355 41.9996 94.6355C42.0418 94.6355 42.0835 94.6446 42.1219 94.6621C42.1633 94.6752 42.1992 94.7017 42.2237 94.7375C42.2483 94.7733 42.2602 94.8163 42.2575 94.8596C42.2369 95.125 41.6974 95.4905 41.4497 95.5525L41.4261 95.5436ZM41.9981 94.7387C41.9694 94.7396 41.9413 94.7467 41.9155 94.7594C41.7328 94.8478 41.5824 95.1928 41.5087 95.4021C41.7681 95.293 42.1249 95.0041 42.1367 94.8419C42.1367 94.8154 42.1367 94.783 42.0689 94.7535C42.0468 94.7416 42.0229 94.7336 41.9981 94.7299V94.7387Z" fill="#263238"/>
<path d="M46.4441 97.0914C46.1109 97.0914 45.648 96.6639 45.3945 96.4015C45.388 96.3925 45.3845 96.3817 45.3845 96.3706C45.3845 96.3595 45.388 96.3486 45.3945 96.3396C45.4003 96.3301 45.4086 96.3224 45.4184 96.3172C45.4283 96.312 45.4394 96.3096 45.4505 96.3101C45.5684 96.3101 46.5915 96.4635 46.7359 96.7524C46.7512 96.7783 46.7593 96.8078 46.7593 96.8379C46.7593 96.868 46.7512 96.8975 46.7359 96.9234C46.7143 96.9684 46.6815 97.0071 46.6408 97.036C46.6001 97.0649 46.5527 97.0829 46.503 97.0885L46.4441 97.0914ZM45.5891 96.4428C45.9605 96.8025 46.2878 97.003 46.4735 96.9794C46.5061 96.9751 46.5371 96.963 46.5638 96.944C46.5905 96.9249 46.6122 96.8996 46.6269 96.8703C46.6335 96.8602 46.637 96.8485 46.637 96.8364C46.637 96.8244 46.6335 96.8126 46.6269 96.8025C46.5502 96.6433 46.0048 96.5077 45.5891 96.4428Z" fill="#263238"/>
<path d="M45.6215 96.4281C45.5553 96.43 45.4891 96.425 45.424 96.4134C45.4148 96.412 45.4063 96.4083 45.399 96.4026C45.3918 96.3969 45.3862 96.3894 45.3827 96.3809C45.3783 96.3722 45.376 96.3626 45.376 96.3529C45.376 96.3432 45.3783 96.3336 45.3827 96.3249C45.4004 96.3043 45.7984 95.8237 46.1758 95.7913C46.2826 95.783 46.3884 95.8168 46.4706 95.8856C46.5856 95.9859 46.5797 96.0743 46.5502 96.1303C46.4765 96.3308 45.9664 96.4281 45.6215 96.4281ZM45.5448 96.319C45.875 96.3367 46.4028 96.2276 46.4706 96.0831C46.4706 96.0831 46.4942 96.036 46.4175 95.9711C46.387 95.9446 46.3514 95.9246 46.3128 95.9124C46.2743 95.9003 46.2337 95.8962 46.1934 95.9004C45.9392 95.9713 45.7129 96.1185 45.5448 96.322V96.319Z" fill="#263238"/>
<path d="M41.5058 95.2252L39.0056 94.5176C38.9625 94.5046 38.9162 94.5079 38.8753 94.5269C38.8345 94.546 38.8022 94.5794 38.7845 94.6208L37.9413 96.5165C37.9215 96.5651 37.9122 96.6173 37.914 96.6697C37.9159 96.7221 37.9287 96.7735 37.9519 96.8206C37.975 96.8676 38.0078 96.9093 38.0482 96.9428C38.0885 96.9762 38.1355 97.0008 38.186 97.0148C39.0705 97.2448 39.4951 97.3096 40.5948 97.6251C41.2729 97.8138 42.2399 98.1646 43.1745 98.43C44.1091 98.6953 44.4216 97.7843 44.059 97.5897C42.4197 96.7229 42.29 96.1156 41.8419 95.467C41.7616 95.3495 41.6427 95.2639 41.5058 95.2252Z" fill="#4CAF4F"/>
<path d="M45.4623 96.0565L43.3277 94.5824C43.2915 94.556 43.2469 94.5439 43.2024 94.5482C43.1578 94.5526 43.1164 94.5731 43.086 94.606L41.6708 96.1273C41.6363 96.1666 41.6106 96.2128 41.5954 96.2628C41.5801 96.3129 41.5757 96.3656 41.5824 96.4175C41.5891 96.4693 41.6067 96.5192 41.6342 96.5637C41.6616 96.6082 41.6982 96.6464 41.7416 96.6757C42.4934 97.1798 42.8825 97.3833 43.823 98.0348C44.4127 98.4358 45.5537 99.3262 46.3497 99.8804C47.1457 100.435 47.7383 99.674 47.4553 99.3733C46.1875 98.0201 45.9104 97.171 45.7011 96.4015C45.6647 96.2619 45.5801 96.1397 45.4623 96.0565Z" fill="#4CAF4F"/>
<path d="M43.7318 93.3148L39.8843 91.4014L40.2823 90.3577L44.3922 92.3743L43.7318 93.3148Z" fill="#4CAF4F"/>
<path d="M38.7285 57.2514L38.4042 58.1005C38.3718 58.1654 38.4485 58.2332 38.5575 58.2332H48.3104C48.3959 58.2332 48.4666 58.1919 48.4725 58.1389L48.5551 57.2956C48.5551 57.2396 48.4873 57.1895 48.3959 57.1895H38.8819C38.8532 57.1868 38.8243 57.191 38.7977 57.2018C38.771 57.2126 38.7473 57.2296 38.7285 57.2514Z" fill="#4CAF4F"/>
<path opacity="0.4" d="M38.7285 57.2514L38.4042 58.1005C38.3718 58.1654 38.4485 58.2332 38.5575 58.2332H48.3104C48.3959 58.2332 48.4666 58.1919 48.4725 58.1389L48.5551 57.2956C48.5551 57.2396 48.4873 57.1895 48.3959 57.1895H38.8819C38.8532 57.1868 38.8243 57.191 38.7977 57.2018C38.771 57.2126 38.7473 57.2296 38.7285 57.2514Z" fill="white"/>
<path d="M40.2645 58.316H40.008C39.9579 58.316 39.9196 58.2894 39.9225 58.257L40.0434 57.1632C40.0434 57.1337 40.0906 57.1072 40.1407 57.1072H40.3972C40.4473 57.1072 40.4856 57.1337 40.4827 57.1632L40.3618 58.257C40.3589 58.2894 40.3146 58.316 40.2645 58.316Z" fill="#4CAF4F"/>
<path d="M46.2789 58.316H46.0254C45.9752 58.316 45.9369 58.2894 45.9399 58.257L46.0578 57.1632C46.0578 57.1337 46.1079 57.1072 46.158 57.1072H46.4116C46.4617 57.1072 46.503 57.1337 46.4971 57.1632L46.3791 58.257C46.3644 58.2894 46.332 58.316 46.2789 58.316Z" fill="#4CAF4F"/>
<g style="mix-blend-mode:multiply">
<path d="M40.0405 108.245C44.4026 108.245 47.9389 107.989 47.9389 107.673C47.9389 107.357 44.4026 107.101 40.0405 107.101C35.6783 107.101 32.1421 107.357 32.1421 107.673C32.1421 107.989 35.6783 108.245 40.0405 108.245Z" fill="#F5F5F5"/>
</g>
<path d="M44.8521 106.865C43.4546 106.458 41.9038 105.936 40.9663 105.391C40.9397 105.373 40.9102 105.364 40.8837 105.349V99.0224H43.7111C43.9257 99.0097 44.1274 98.9154 44.2749 98.759C44.4223 98.6025 44.5045 98.3956 44.5045 98.1806C44.5045 97.9656 44.4223 97.7588 44.2749 97.6023C44.1274 97.4458 43.9257 97.3516 43.7111 97.3389H40.8985V68.499H39.2003V97.3389H36.3906C36.2758 97.3321 36.1609 97.3489 36.0529 97.3881C35.9449 97.4273 35.846 97.4882 35.7624 97.567C35.6787 97.6459 35.6121 97.741 35.5666 97.8465C35.521 97.952 35.4975 98.0657 35.4975 98.1806C35.4975 98.2956 35.521 98.4093 35.5666 98.5148C35.6121 98.6203 35.6787 98.7154 35.7624 98.7942C35.846 98.8731 35.9449 98.934 36.0529 98.9732C36.1609 99.0124 36.2758 99.0292 36.3906 99.0224H39.2003V105.34C39.1737 105.34 39.1472 105.364 39.1206 105.382C38.1684 105.936 36.6294 106.458 35.2319 106.856C35.1375 106.884 35.0564 106.946 35.0034 107.029C34.9503 107.112 34.9288 107.212 34.9427 107.309C34.9566 107.407 35.005 107.496 35.0791 107.561C35.1533 107.626 35.2483 107.663 35.3469 107.664H44.7371C44.8313 107.657 44.9205 107.619 44.9898 107.555C45.059 107.49 45.1041 107.404 45.1176 107.311C45.131 107.217 45.112 107.122 45.0637 107.041C45.0154 106.96 44.9407 106.897 44.8521 106.865Z" fill="#E0E0E0"/>
<path d="M45.2854 65.5627H34.8014C33.9579 65.5627 33.2742 66.2465 33.2742 67.0899V70.2063C33.2742 71.0497 33.9579 71.7335 34.8014 71.7335H45.2854C46.1288 71.7335 46.8126 71.0497 46.8126 70.2063V67.0899C46.8126 66.2465 46.1288 65.5627 45.2854 65.5627Z" fill="#4CAF4F"/>
<path d="M34.7041 71.7363V72.2729C34.7041 72.7152 35.1847 73.0748 35.7743 73.0748H44.3243C44.9139 73.0748 45.3945 72.7152 45.3945 72.2729V71.7363H34.7041Z" fill="#4CAF4F"/>
<path opacity="0.3" d="M34.7041 71.7363V72.2729C34.7041 72.7152 35.1847 73.0748 35.7743 73.0748H44.3243C44.9139 73.0748 45.3945 72.7152 45.3945 72.2729V71.7363H34.7041Z" fill="white"/>
</svg>
