<svg width="16" height="16" viewBox="0 0 16 16" fill="none" xmlns="http://www.w3.org/2000/svg">
<path d="M3.72222 3.72222H3.73M12.2778 3.72222H12.2856M3.72222 12.2778H3.73M8.77778 8.77778H8.78556M12.2778 12.2778H12.2856M11.8889 15H15V11.8889M9.55556 11.5V15M15 9.55556H11.5M10.8 6.44444H13.7556C14.1912 6.44444 14.409 6.44444 14.5753 6.35967C14.7217 6.2851 14.8406 6.16612 14.9152 6.01977C15 5.8534 15 5.63559 15 5.2V2.24444C15 1.80885 15 1.59105 14.9152 1.42467C14.8406 1.27833 14.7217 1.15934 14.5753 1.08477C14.409 1 14.1912 1 13.7556 1H10.8C10.3644 1 10.1466 1 9.98022 1.08477C9.83384 1.15934 9.71492 1.27833 9.64033 1.42467C9.55556 1.59105 9.55556 1.80885 9.55556 2.24444V5.2C9.55556 5.63559 9.55556 5.8534 9.64033 6.01977C9.71492 6.16612 9.83384 6.2851 9.98022 6.35967C10.1466 6.44444 10.3644 6.44444 10.8 6.44444ZM2.24444 6.44444H5.2C5.63559 6.44444 5.8534 6.44444 6.01977 6.35967C6.16612 6.2851 6.2851 6.16612 6.35967 6.01977C6.44444 5.8534 6.44444 5.63559 6.44444 5.2V2.24444C6.44444 1.80885 6.44444 1.59105 6.35967 1.42467C6.2851 1.27833 6.16612 1.15934 6.01977 1.08477C5.8534 1 5.63559 1 5.2 1H2.24444C1.80885 1 1.59105 1 1.42467 1.08477C1.27833 1.15934 1.15934 1.27833 1.08477 1.42467C1 1.59105 1 1.80885 1 2.24444V5.2C1 5.63559 1 5.8534 1.08477 6.01977C1.15934 6.16612 1.27833 6.2851 1.42467 6.35967C1.59105 6.44444 1.80885 6.44444 2.24444 6.44444ZM2.24444 15H5.2C5.63559 15 5.8534 15 6.01977 14.9152C6.16612 14.8406 6.2851 14.7217 6.35967 14.5753C6.44444 14.409 6.44444 14.1912 6.44444 13.7556V10.8C6.44444 10.3644 6.44444 10.1466 6.35967 9.98022C6.2851 9.83384 6.16612 9.71492 6.01977 9.64033C5.8534 9.55556 5.63559 9.55556 5.2 9.55556H2.24444C1.80885 9.55556 1.59105 9.55556 1.42467 9.64033C1.27833 9.71492 1.15934 9.83384 1.08477 9.98022C1 10.1466 1 10.3644 1 10.8V13.7556C1 14.1912 1 14.409 1.08477 14.5753C1.15934 14.7217 1.27833 14.8406 1.42467 14.9152C1.59105 15 1.80885 15 2.24444 15Z" stroke="black" stroke-width="2" stroke-linecap="round" stroke-linejoin="round"/>
</svg>
