<svg width="12" height="14" viewBox="0 0 12 14" fill="none" xmlns="http://www.w3.org/2000/svg">
<path fill-rule="evenodd" clip-rule="evenodd" d="M1.49756 1.74749C1.49756 1.63427 1.58934 1.54248 1.70256 1.54248H10.2976C10.4108 1.54248 10.5026 1.63427 10.5026 1.74749V10.474H1.49756V1.74749ZM1.70256 0.0424805C0.760909 0.0424805 -0.00244141 0.805839 -0.00244141 1.74749V12.2525C-0.00244141 13.1942 0.760909 13.9576 1.70256 13.9576H10.2976C11.2393 13.9576 12.0026 13.1942 12.0026 12.2525V1.74749C12.0026 0.805839 11.2393 0.0424805 10.2976 0.0424805H1.70256ZM3.61261 2.63571C3.19839 2.63571 2.86261 2.9715 2.86261 3.38571C2.86261 3.79992 3.19839 4.13571 3.61261 4.13571H8.38765C8.80186 4.13571 9.1376 3.79992 9.1376 3.38571C9.1376 2.9715 8.80186 2.63571 8.38765 2.63571H3.61261ZM2.86261 6.00992C2.86261 5.5957 3.19839 5.25992 3.61261 5.25992H8.38765C8.80186 5.25992 9.1376 5.5957 9.1376 6.00992C9.1376 6.42413 8.80186 6.75992 8.38765 6.75992H3.61261C3.19839 6.75992 2.86261 6.42413 2.86261 6.00992ZM3.61261 7.88409C3.19839 7.88409 2.86261 8.21988 2.86261 8.63409C2.86261 9.04831 3.19839 9.38409 3.61261 9.38409H6.47763C6.89185 9.38409 7.22763 9.04831 7.22763 8.63409C7.22763 8.21988 6.89185 7.88409 6.47763 7.88409H3.61261Z" fill="black"/>
</svg>
